<svg width="448" height="225" viewBox="0 0 448 225" fill="none" xmlns="http://www.w3.org/2000/svg">
<path fill-rule="evenodd" clip-rule="evenodd" d="M412.397 14.834C415.474 14.742 418.217 14.466 418.351 14.1901C418.552 13.9141 420.291 14.0061 422.298 14.1901C426.112 14.742 429.123 16.674 429.123 18.7899C429.123 19.4339 429.992 22.4698 431.13 25.4138C434.341 34.2455 435.01 41.3294 434.341 58.9009C434.006 67.2727 433.605 78.0364 433.471 82.8203C433.137 94.412 432.936 95.1479 429.992 96.8959C423.837 100.484 419.622 101.496 412.865 100.852C404.904 100.208 399.953 97.3559 399.351 93.124C399.083 91.744 398.615 88.9841 398.28 86.9602C397.076 80.6123 396.675 69.7566 397.277 62.1208C397.477 59.5449 397.879 52.3691 398.213 46.0212C398.548 38.2014 399.083 33.6016 399.886 31.5776C400.488 29.9216 401.023 27.0697 401.023 25.1378C401.023 17.87 404.168 15.018 412.397 14.834Z" fill="#DA0000"/>
<path d="M421.703 35.4395H419.813V28.3035H418.439V34.7524H416.612V21.4642H418.439V26.7108H419.813V21.2299H421.703V35.4395ZM415.113 24.4778H411.819V30.5442C412.568 30.5338 413.255 30.5052 413.88 30.4583C414.504 30.4115 415.139 30.3282 415.785 30.2085L415.925 31.8325C415.129 31.9834 414.348 32.0849 413.583 32.1369C412.818 32.1838 411.891 32.2124 410.804 32.2228H409.82V22.8695H415.113V24.4778Z" fill="white"/>
<path d="M420.688 44.7897H422.608V46.4136H420.688V51.0356H418.689V40.4331H420.688V44.7897ZM417.846 43.4936H409.414V41.9165H412.646V40.4019H414.629V41.9165H417.846V43.4936ZM413.63 43.9933C414.312 43.9933 414.915 44.1078 415.441 44.3369C415.972 44.5659 416.386 44.8886 416.683 45.305C416.979 45.7214 417.128 46.2002 417.128 46.7415C417.128 47.2829 416.979 47.7591 416.683 48.1703C416.391 48.5763 415.98 48.8938 415.449 49.1228C414.918 49.3466 414.312 49.4585 413.63 49.4585C412.943 49.4585 412.331 49.3466 411.795 49.1228C411.264 48.8938 410.848 48.5763 410.546 48.1703C410.249 47.7591 410.101 47.2829 410.101 46.7415C410.101 46.2002 410.249 45.7214 410.546 45.305C410.848 44.8886 411.264 44.5659 411.795 44.3369C412.331 44.1078 412.943 43.9933 413.63 43.9933ZM413.63 45.508C413.146 45.5184 412.761 45.6303 412.474 45.8437C412.188 46.0571 412.048 46.3564 412.053 46.7415C412.048 47.1267 412.185 47.4234 412.467 47.6316C412.753 47.8398 413.141 47.9439 413.63 47.9439C414.119 47.9439 414.509 47.8398 414.801 47.6316C415.092 47.4182 415.238 47.1215 415.238 46.7415C415.238 46.3564 415.092 46.0571 414.801 45.8437C414.509 45.6303 414.119 45.5184 413.63 45.508ZM421.203 54.3772H411.475V50.2237H413.458V52.7845H421.203V54.3772Z" fill="white"/>
<path d="M417.081 67.5999H410.132V60.745H417.081V67.5999ZM412.1 66.0228H415.098V62.3221H412.1V66.0228ZM421.312 69.7235H419.314V59.6207H421.312V69.7235ZM421.687 73.5023H411.787V68.7866H413.802V71.894H421.687V73.5023Z" fill="white"/>
<path d="M420.875 80.5259C420.875 81.2494 420.86 81.8922 420.828 82.4543C420.797 83.0113 420.716 83.6281 420.586 84.3047H422.421V85.8974H416.893V87.943H420.891V93.0022H418.892V89.5045H410.725V87.943H414.895V85.8974H409.414V84.3047H418.58C418.699 83.7061 418.78 83.1492 418.822 82.6339C418.863 82.1134 418.887 81.5669 418.892 80.9944H411.007V79.4172H420.875V80.5259Z" fill="white"/>
<g filter="url(#filter0_d_11_1125)">
<path d="M32.2107 157.74C31.3959 156.223 33.1942 156.021 33.5454 155.089C33.9201 154.841 34.29 154.598 34.6647 154.349L34.7396 154.293C35.339 153.867 35.9338 153.436 36.5332 153.01L36.655 152.996L36.6971 152.879C37.32 152.443 37.9428 152.003 38.5751 151.577C39.6194 150.865 39.8067 150.116 38.6968 149.296L38.7249 149.329C38.2566 147.891 39.802 147.554 40.2188 146.599C42.0265 144.894 44.6443 144.351 46.2553 142.365C47.0374 142.234 47.3933 141.668 47.6368 140.989C48.4189 141.892 49.1542 141.12 49.9035 140.918C50.2219 140.773 50.5357 140.633 50.8541 140.487C52.0717 140.188 52.2825 139.307 52.0951 138.244C52.0764 138.127 51.6737 137.935 51.58 137.996C50.8354 138.45 50.2219 138.994 50.8307 139.977C50.5263 139.991 50.2172 140.01 49.9128 140.024C49.4867 139.668 49.2619 139.026 48.5594 139.05C48.6812 138.558 48.4002 137.401 48.625 137.649C49.7208 138.881 49.7068 137.884 50.0065 137.2C50.442 136.207 51.2569 136.006 52.2356 136.235C52.5541 137.2 52.9849 138.277 54.0948 138.23C54.8675 138.197 56.0289 137.902 55.8791 136.563C56.0196 136.277 56.1648 135.987 56.3052 135.701C56.5066 135.729 56.708 135.758 56.9094 135.786C56.914 137.879 57.7757 135.968 58.2066 136.062C60.2906 134.924 58.9231 133.374 58.6983 131.96C60.1032 131.683 61.3536 131.337 59.7239 129.688C60.047 129.047 60.3468 128.41 59.2181 128.288C59.2509 126.663 57.7149 128.063 57.3027 127.295C58.0848 124.579 58.8669 121.863 59.7098 118.926C57.5228 120.046 58.4267 122.753 56.5675 123.75C58.6327 125.253 56.043 125.853 55.9493 126.935C56.2818 127.525 56.516 128.218 57.3262 128.339C57.3496 128.494 57.373 128.653 57.4011 128.808C56.8719 128.817 56.2678 128.667 55.8323 128.873C54.8207 129.356 55.5887 129.534 56.0617 129.712C55.6683 130.522 55.3171 131.388 54.137 131.117C53.87 130.77 53.6031 130.419 53.2706 129.988C52.6571 131.098 51.6034 132.367 52.4698 133.355C53.6218 134.666 52.8632 135.345 52.2169 136.249C52.0905 135.903 51.964 135.561 51.8376 135.214C51.6503 134.933 51.4676 134.652 51.2803 134.371C51.4208 133.538 51.5379 132.699 51.7018 131.875C52.3246 128.761 52.1607 126.803 51.1398 125.459C51.1866 125.31 51.2381 125.16 51.285 125.01C53.5469 123.577 53.9918 122.167 52.9194 119.821C54.8956 113.794 56.8485 107.757 58.8763 101.744C59.1572 100.915 59.4101 100.143 59.3071 99.2762C60.7167 97.8479 61.1616 95.9793 61.6487 94.1295C61.9952 93.8954 62.0795 93.5629 61.9999 93.1695C62.1451 92.6824 61.9905 92.3499 61.4894 92.2048C62.9365 91.8301 63.2222 90.6547 63.4142 89.4183C65.4935 85.3487 65.5543 80.6141 67.6336 76.5398C67.7226 76.3666 67.6055 76.0856 67.5868 75.8561C68.8747 74.0718 69.2025 71.8848 70.0642 69.9179C70.9867 68.7706 71.619 67.478 71.9796 66.0497L71.9515 66.1012C72.949 64.4668 73.7029 62.7153 74.3398 60.9124L74.307 60.9639C74.7098 60.7344 74.7192 60.3317 74.766 59.943L74.7238 59.9992C74.8409 59.8259 74.9533 59.6479 75.0704 59.4746C75.1079 59.3295 75.1453 59.1843 75.1875 59.0391C75.6464 58.4771 75.9414 57.8402 76.0538 57.1237C76.1616 57.0254 76.1943 56.9083 76.1475 56.7725C76.8359 55.6298 77.5337 54.4872 77.8849 52.9136C74.8081 53.4897 72.0451 54.1921 69.5022 55.5221C68.1254 56.2433 67.1747 57.4281 66.8094 58.997C64.5522 60.06 62.2481 61.0341 60.0564 62.2189C58.1785 63.2352 56.7267 64.7525 55.9259 66.799C54.0199 68.321 51.3974 67.1924 49.9924 64.228C48.625 65.9233 46.5738 65.5205 45.1033 65.0944C43.9981 64.7712 45.6465 63.1321 45.3515 62.0035C45.2766 61.7132 45.3 61.3994 45.2812 61.095C44.251 60.8515 43.4829 62.6872 42.6119 61.5774C41.6612 60.3644 40.1017 59.6526 39.6615 58.0276C39.6615 57.7325 39.6615 57.4422 39.6615 57.1472C40.1579 57.002 40.0268 56.5571 40.1158 56.2152L40.0924 56.2386C41.3755 54.904 42.4527 53.3866 43.9653 52.2533C56.5066 42.845 70.3826 36.2933 85.6963 32.8981C87.9021 32.4111 89.2414 31.4604 90.2296 29.4795C92.5617 24.7964 95.4887 20.4786 99.0759 16.6571C102.363 13.1542 102.317 13.3649 105.506 15.8329C106.063 16.2638 106.822 16.4324 107.726 16.8257C105.487 18.4133 105.749 19.8838 107.431 21.5557C108.053 22.1738 108.316 23.1198 108.152 24.3C107.889 26.2528 107.196 28.0745 106.667 30.0836C108.531 30.0836 110.161 30.0836 111.791 30.0836C118.717 30.0929 125.573 30.786 132.12 33.0854C139.781 35.7735 145.743 40.6486 149.564 47.9449C151.091 51.1903 151.03 54.8478 152.346 58.1868C153.536 61.2121 155.423 63.8721 156.364 67.0285C158.34 73.6644 158.434 80.0475 154.781 86.1683C154.748 85.5782 154.453 85.2363 153.854 85.1848C152.576 84.562 153.077 85.6859 152.908 86.1495C151.438 86.4539 150.815 87.4374 150.641 88.7767C151.531 88.0087 152.674 87.4374 152.899 86.1402C153.208 85.8404 153.512 85.5407 153.821 85.241C153.952 85.6719 154.084 86.1027 154.215 86.5335C153.943 86.7115 153.751 86.9269 153.854 87.2828C153.465 87.8027 152.796 88.1586 152.861 88.95L152.894 88.9126C152.529 88.8751 152.416 89.0952 152.398 89.4043L152.407 89.3949C151.246 90.1021 150.96 91.6522 149.681 92.2469C146.797 93.8954 144.141 95.7827 142.582 98.8548C141.982 99.1076 141.233 99.2575 141.636 100.208L141.678 100.161C141.495 100.152 141.285 100.072 141.139 100.143C140.816 100.297 141.139 100.489 141.163 100.667L141.2 100.63C141.027 100.606 140.849 100.269 140.69 100.592C140.62 100.733 140.69 100.948 140.695 101.126L140.723 101.098C140.133 100.831 139.978 101.009 140.226 101.59L140.25 101.566C139.697 101.346 139.519 101.501 139.758 102.063L139.8 102.03C139.168 101.58 139.084 102.213 138.831 102.517L138.859 102.498C138.69 102.667 138.526 102.835 138.358 102.999L138.376 102.971C138.044 103.21 137.622 103.407 137.889 103.95L137.932 103.903C137.473 103.777 137.412 104.114 137.332 104.428C136.714 105.158 138.039 105.762 137.463 106.488C136.517 106.849 135.665 107.336 135.023 108.146C134.443 108.479 133.904 109.392 133.225 108.919C132.11 108.151 131.759 109.097 131.113 109.532C129.516 110.614 129.797 112.178 129.942 113.724C129.029 113.499 128.865 114.805 127.999 114.67C127.872 114.684 127.746 114.698 127.619 114.712C127.352 113.911 128.369 113.457 128.205 112.197C127.198 113.138 125.863 113.508 127.629 114.702C126.8 115.901 125.25 114.744 124.327 115.709C124.046 116.004 123.278 116.454 123.723 116.599C125.034 117.025 124.346 117.859 123.938 117.948C123.4 118.065 122.936 119.549 122.117 118.177C121.854 117.737 121.171 118.126 120.66 118.374C119.185 119.081 118.323 120.266 117.776 121.741C117.757 121.521 117.738 121.296 117.719 121.076C117.153 122.214 115.336 121.324 114.956 122.771C114.778 122.865 114.605 122.954 114.427 123.048C113.795 123.521 112.619 123.268 112.521 124.467C110.699 124.546 110.044 126.087 109.074 127.239C110.559 126.733 111.926 126.078 112.633 124.542C113.392 124.261 114.633 124.687 114.568 123.207C114.699 123.216 114.82 123.183 114.933 123.104C115.462 123.455 115.434 124.008 115.457 124.546C115.158 125.033 114.479 125.272 114.516 125.979C114.202 126.312 113.889 126.644 113.579 126.972C112.418 126.157 112.793 127.323 112.591 127.74C112.441 127.899 112.287 128.063 112.137 128.222C111.983 128.297 111.823 128.368 111.669 128.443C111.318 128.372 110.971 128.335 110.756 128.719C109.641 129.735 108.138 130.278 107.281 131.599C106.85 131.927 106.414 132.25 105.983 132.578C105.164 132.437 104.822 133.069 104.387 133.556C103.736 133.837 103.141 134.193 102.79 134.849C101.221 134.376 101.956 137.354 100.19 136.586C101.09 138.141 99.2258 137.87 98.9167 138.553C98.1814 140.183 96.0225 139.364 95.2826 140.843C94.716 140.768 94.1446 140.689 93.8262 141.344L93.8543 141.321L93.0066 141.415C90.7962 141.129 88.8761 141.78 87.2043 143.222C85.7525 143.48 84.09 143.457 84.0666 145.601L84.0479 146.051C83.6966 146.028 83.4578 146.117 83.5702 146.543L83.6077 146.515C83.1394 146.557 82.6757 146.599 82.2074 146.641C81.5284 144.604 80.3295 146.084 79.5006 146.369C78.194 146.819 78.3111 147.877 78.9339 148.912C77.6367 149.456 76.2974 149.929 75.3795 151.085C74.972 151.6 74.6255 151.479 74.3351 151.024C74.2555 150.898 74.3913 150.631 74.4241 150.434C74.5037 150.542 74.677 150.697 74.6536 150.753C74.5646 150.935 74.4054 151.081 74.2696 151.24C72.785 150.458 72.4291 151.099 72.682 152.504C71.9187 152.462 71.5768 150.734 70.4997 151.966C69.8347 152.729 70.0033 153.3 70.8978 153.703C70.7292 153.858 70.4575 153.989 70.4154 154.171C70.3124 154.621 70.7104 154.541 70.9259 154.485C71.5112 154.331 72.0826 154.115 72.6539 153.923C71.928 156.068 69.933 156.335 68.1722 156.949C68.0692 156.438 68.0739 155.722 67.3386 155.848C66.8656 155.928 66.2755 156.307 66.0695 156.719C65.751 157.356 66.4488 157.581 66.8984 157.848C66.2381 158.672 65.2453 159 64.3602 159.454C62.4214 160.442 61.096 161.721 60.4217 163.978C59.766 166.174 59.5178 168.628 57.8507 170.455C57.8132 167.673 59.2603 165.13 59.2509 162.283C57.8553 162.662 57.27 163.5 57.3215 164.807C56.6986 164.484 56.0008 163.978 55.5794 164.98C54.8535 166.708 52.9194 167.748 53.0973 170.103C51.3833 168.975 53.3783 167.514 52.3059 166.582C52.1326 166.347 51.8282 166.071 51.6596 166.366C51.4442 166.736 51.9359 166.675 52.1326 166.783C51.8844 167.35 51.4442 167.626 50.826 167.631C49.5616 167.715 48.2597 167.322 47.0796 168.268C45.9275 169.19 44.8504 170.099 44.4336 171.578C42.9444 171.063 41.4833 171.138 40.0549 171.799C37.2966 172.571 35.1658 174.889 32.1405 175.006C33.1239 173.044 35.4187 172.824 36.847 171.452C37.0109 171.33 37.1701 171.209 37.334 171.087L37.409 171.012C39.3525 170.211 41.1414 169.312 40.0175 166.671C41.324 165.547 40.0549 164.811 39.61 163.954C40.2657 162.61 41.4973 161.772 42.4573 160.695C42.6119 160.587 42.7617 160.48 42.9163 160.372C42.7524 160.278 42.5885 160.189 42.4246 160.096C40.4764 159.131 38.3409 159.491 36.2944 159.224L36.2757 159.206C36.2054 157.314 38.9684 157.379 39.0153 155.028C36.9032 156.995 34.6975 157.81 32.192 157.731L32.2107 157.74ZM120.665 91.3712C120.829 91.2213 120.993 91.0715 121.157 90.9216C121.307 90.7624 121.456 90.5985 121.606 90.4392C121.873 90.1723 122.135 89.9054 122.402 89.6431C122.543 89.5776 122.641 89.4745 122.697 89.334C122.861 89.1654 123.021 88.9969 123.184 88.8283C123.334 88.6925 123.48 88.5566 123.629 88.4208C123.793 88.2476 123.957 88.079 124.121 87.9057C124.276 87.7324 124.435 87.5591 124.589 87.3812C124.927 87.0206 125.268 86.66 125.606 86.2994C126.008 85.8264 126.411 85.3534 126.814 84.8757C126.964 84.7118 127.114 84.5479 127.259 84.384L127.69 83.8782C128.097 83.4755 128.509 83.0681 128.917 82.6653C129.038 82.5201 129.16 82.375 129.282 82.2298C129.568 81.8551 130.396 81.4758 129.9 81.0543C129.399 80.6328 129.179 81.4477 128.945 81.8551C128.799 82.0237 128.659 82.1876 128.514 82.3562C128.144 82.7637 127.779 83.1758 127.409 83.5832C127.263 83.7518 127.123 83.9204 126.978 84.089C126.814 84.2388 126.65 84.3887 126.486 84.5385C126.046 84.9788 125.601 85.4143 125.161 85.8545C124.861 86.2338 124.557 86.6132 124.257 86.9925C124.098 87.147 123.943 87.3016 123.784 87.4561C123.625 87.6107 123.465 87.7652 123.311 87.9197C123.152 88.0743 122.992 88.2241 122.833 88.3787C122.688 88.5473 122.543 88.7159 122.398 88.8798C122.248 89.0437 122.098 89.2029 121.953 89.3668C121.686 89.6244 121.414 89.8866 121.147 90.1442C120.988 90.3034 120.834 90.4627 120.674 90.6219C120.529 90.7811 120.379 90.9356 120.234 91.0949C120.098 91.1558 119.995 91.2588 119.934 91.3946C119.672 91.7084 118.862 91.8676 119.265 92.3453C119.672 92.8323 119.977 92.1954 120.206 91.8348C120.361 91.6803 120.515 91.5257 120.67 91.3665L120.665 91.3712ZM121.634 87.1283L121.583 87.1845C121.756 87.0112 121.929 86.8379 122.103 86.6647L122.046 86.7162C122.248 86.5663 122.449 86.4165 122.651 86.2713L122.594 86.3322C122.772 86.1542 122.95 85.9763 123.124 85.7983L123.03 85.8779C123.25 85.6719 123.465 85.4658 123.686 85.2597L123.873 85.2223L123.929 85.0396C124.14 84.8149 124.346 84.5947 124.557 84.37L124.463 84.4824C124.646 84.281 124.833 84.0796 125.016 83.8782C125.282 83.6066 125.545 83.3303 125.812 83.0587C125.999 82.862 126.186 82.6606 126.374 82.4639C126.491 82.3281 126.612 82.197 126.73 82.0612C126.856 81.8739 126.982 81.6819 127.104 81.4945C129.155 79.5698 130.841 77.3547 132.326 74.9757C132.527 74.6666 132.729 74.3575 132.935 74.0484L132.878 74.114C133.333 73.4584 133.787 72.8074 134.241 72.1518L134.223 72.1799C134.916 71.5196 135.323 70.6906 135.637 69.8055L135.623 69.829L137.482 66.0403V66.0497C138.653 66.621 137.875 67.4312 137.618 68.0353C136.578 70.4612 135.501 72.8683 133.927 75.0225C133.103 76.1511 132.405 77.3687 131.651 78.5442C131.825 78.6425 131.998 78.7456 132.176 78.8439C134.841 74.882 137.655 71.0044 139.187 66.3775C139.622 65.0569 139.458 64.0922 138.175 63.2211C132.218 59.1796 125.924 55.9904 118.656 55.1475C118.169 55.0913 117.607 55.1147 117.527 54.5855C117.396 53.7519 118.108 53.8643 118.633 53.8268C118.951 53.8034 119.251 53.7472 119.274 53.2087C114.249 52.2159 109.14 52.5905 104.059 52.3938C101.689 52.3048 100.874 53.2742 100.116 55.2411C96.0553 65.7968 91.9529 76.3385 87.6866 86.8145C85.6682 91.7646 83.2658 96.56 81.4815 101.613C81.3972 101.871 81.3176 102.133 81.2333 102.39C80.2312 103.852 79.8378 105.556 79.3133 107.209L79.3507 107.153C76.1054 113.733 74.471 120.884 72.1435 127.951C75.4169 125.539 78.6857 123.132 81.9592 120.72L82.0763 120.706L82.1184 120.594C83.6264 119.414 85.1297 118.233 86.6376 117.053C86.7969 117.077 86.8858 117.006 86.9092 116.852C87.6023 116.285 88.3001 115.714 88.9932 115.147L89.1478 115.119L89.1993 114.974L91.3441 113.222L91.4799 113.101C95.6011 110.305 99.3944 107.088 103.141 103.819C106.232 101.121 109.234 98.3209 112.273 95.5672C112.563 95.2722 112.858 94.9725 113.149 94.6774C115.27 94.2045 116.558 92.57 118.033 91.1885L118.145 91.0715C119.134 90.0974 120.328 89.3153 121.002 88.0509C121.091 87.9432 121.129 87.8167 121.115 87.6762L121.639 87.1423L121.634 87.1283ZM149.663 89.409C149.588 89.3902 149.513 89.3668 149.438 89.3481C149.489 89.3902 149.541 89.4324 149.592 89.4745C149.663 89.6759 149.733 89.8726 149.798 90.074C149.855 90.0318 149.972 89.9663 149.967 89.9569C149.873 89.7696 149.766 89.5869 149.663 89.4043V89.409ZM65.8447 107.256C66.2474 107.013 66.2334 106.652 66.1351 106.263C65.9758 106.526 65.8166 106.788 65.6574 107.05C65.4373 107.237 65.2546 107.425 65.5497 107.696C65.648 107.551 65.7464 107.401 65.8447 107.256ZM138.517 93.2631C137.866 92.9681 137.538 93.4036 137.21 93.8439C136.892 94.1295 136.573 94.4152 136.255 94.6962C135.641 95.3659 135.028 96.0355 134.41 96.7052L133.984 97.2063C133.684 97.3515 133.389 97.6184 133.707 97.876C134.073 98.1757 134.185 97.7683 134.251 97.4686C134.41 97.314 134.569 97.1642 134.728 97.0096C135.543 96.5788 136.133 95.9185 136.611 95.1458C137.046 94.9537 137.37 94.6493 137.515 94.181C137.857 93.8485 138.198 93.516 138.536 93.1929L138.419 93.1648L138.512 93.2631H138.517ZM116.497 94.448C117.523 95.2394 117.804 94.1763 118.323 93.7127C118.731 93.3896 119.621 93.1367 119.091 92.5326C118.754 92.1486 118.314 92.9447 117.986 93.3053C117.448 93.6191 117.242 94.3543 116.539 94.4386C116.619 94.6166 116.698 94.7898 116.778 94.9678C116.839 94.921 116.9 94.8788 116.961 94.832C116.806 94.7055 116.652 94.5791 116.492 94.4526L116.497 94.448ZM104.438 130.854C105.295 130.709 105.81 130.1 106.311 129.477C106.499 129.318 106.939 129.22 106.677 128.901C106.466 128.644 106.171 128.892 105.974 129.108C105.192 129.365 104.602 129.88 104.092 130.508C103.745 130.756 103.394 130.995 103.061 131.262C103.042 131.276 103.141 131.547 103.22 131.566C103.853 131.739 104.138 131.276 104.433 130.854H104.438ZM69.1837 154.532C68.8231 152.973 67.54 154.19 66.772 153.764C66.5331 153.633 66.3036 154.162 66.4067 154.424C66.7532 155.291 67.5447 154.865 68.1628 154.949C68.4485 155.328 68.8138 155.558 69.2446 155.249C69.5209 155.047 69.3992 154.757 69.1791 154.532H69.1837ZM80.6199 97.7261C79.51 99.3839 78.8356 101.248 78.0863 103.079C74.7519 112.052 70.8369 120.809 68.1207 130.002C68.3923 130.105 68.6639 130.208 68.9355 130.306C72.1435 121.404 75.3467 112.501 78.5546 103.603C79.4912 101.772 80.3857 99.9272 80.8446 97.9088C81.1818 97.7121 81.4628 97.2906 81.1209 97.1033C80.662 96.8551 80.7978 97.5107 80.6152 97.7261H80.6199ZM59.752 124.551C59.3352 125.132 58.5906 125.661 59.0355 126.457C59.19 126.738 59.8972 126.902 60.2906 126.817C61.3162 126.607 60.4264 125.595 60.8853 125.085C61.0258 124.93 61.0258 124.654 61.0914 124.434C61.4473 123.263 61.7704 122.083 62.1825 120.936C62.3511 120.467 62.5759 120.083 62.0186 119.769C61.4426 119.446 61.1054 119.577 60.7495 120.205C59.9721 121.572 59.5647 122.982 59.752 124.551ZM64.126 110.216C62.4354 112.216 61.9484 114.271 63.7795 116.407C64.5569 114.534 65.1141 112.618 64.4866 110.572C64.8285 110.333 64.9877 110.052 64.7161 109.659C64.5194 109.846 64.3227 110.033 64.126 110.221V110.216ZM118.342 33.9331C116.75 33.4788 115.167 33.7036 113.561 34.097C115.148 34.2468 116.731 34.4014 118.319 34.5512C127.366 35.7033 135.52 38.9674 142.512 45.0039C141.121 42.8075 139.463 41.0373 137.295 39.7354C131.45 36.2231 125.016 34.7058 118.347 33.9284L118.342 33.9331ZM146.169 83.5738C148.927 81.4945 149.813 79.5979 149.035 77.9963C148.047 79.9163 147.106 81.7427 146.169 83.5738ZM47.0468 156.972C45.3328 156.63 45.0049 158.705 43.5532 158.555C43.5391 158.555 43.3237 159.276 43.4361 159.571C43.5813 159.946 44.0168 160.058 44.3915 159.758C45.389 158.972 46.6862 158.471 47.0421 156.972H47.0468ZM62.2387 115.943C61.6159 116.828 61.1991 117.301 61.3677 117.966C61.3864 118.046 61.7798 118.135 61.925 118.06C62.8007 117.629 62.2715 116.936 62.2387 115.939V115.943ZM133.796 107.209C133.67 107.462 133.558 107.626 133.52 107.809C133.511 107.851 133.792 108.034 133.862 108.001C134.04 107.907 134.176 107.734 134.326 107.589C134.176 107.481 134.026 107.373 133.801 107.209H133.796ZM65.072 109.167C65.2874 109.069 65.4232 109.008 65.559 108.947C65.442 108.764 65.3296 108.572 65.1938 108.404C65.1844 108.394 64.9081 108.53 64.9128 108.586C64.9268 108.778 65.0111 108.966 65.072 109.172V109.167ZM81.519 95.6703C81.4441 95.8061 81.3223 95.9278 81.3223 96.0543C81.3223 96.1713 81.4394 96.2931 81.505 96.4149C81.5752 96.2931 81.7016 96.176 81.7016 96.0543C81.7016 95.9325 81.5893 95.8061 81.519 95.6749V95.6703Z" fill="#F4F4F4"/>
<path d="M294.052 143.7L293.935 143.658L293.855 143.756C293.654 143.883 293.448 144.009 293.246 144.131L293.288 144.089C292.979 144.234 292.675 144.379 292.366 144.524L291.528 144.754C291.607 143.897 292.005 142.876 290.53 142.834C287.753 143.33 284.995 144.098 282.147 143.316C281.515 143.049 281.347 142.225 280.578 142.08C278.274 141.649 277.193 140.141 276.846 137.907C276.701 136.97 276.05 136.376 275.254 135.758C272.791 133.847 271.133 131.679 271.629 128.063C272.308 123.127 274.786 119.02 276.762 114.66L276.902 114.59L276.912 114.435C277.169 114.037 277.427 113.635 277.684 113.237L277.825 113.185L277.848 113.035C278.532 112.047 279.216 111.059 279.899 110.066C280.026 109.907 280.152 109.748 280.279 109.588C281.122 108.507 281.965 107.43 282.812 106.348C282.92 106.231 283.028 106.109 283.14 105.992C283.627 105.5 284.114 105.004 284.606 104.512L284.587 104.531C285.337 103.856 286.109 103.21 286.826 102.503C290.736 98.644 295.077 95.4596 300.276 93.5067C301.741 92.9541 302.964 92.9494 304.097 94.0827C304.598 94.6213 305.043 95.2722 305.942 95.0662C307.047 96.1246 306.874 94.9772 306.921 94.4527C307.127 92.158 307.281 89.8586 307.459 87.5639C307.937 87.1611 307.951 86.6319 307.858 86.0793C307.577 84.0656 308.649 82.0659 307.914 80.0475C308.373 79.4855 308.391 78.8205 308.345 78.1415C308.494 77.0644 308.644 75.9826 308.794 74.9055C309.122 74.9055 309.45 74.9055 309.773 74.9055V79.4246C309.885 79.4246 309.998 79.4246 310.115 79.4246C310.311 77.7715 310.513 76.1184 310.71 74.4606C311.768 72.9058 309.483 70.8171 311.637 69.2857C312.185 68.897 311.922 67.3797 312.035 66.3822L312.662 61.7975C313.842 55.4987 315.023 49.1953 317.135 43.0792C315.73 46.2122 311.843 47.7529 311.857 51.8225C311.857 52.6842 311.398 51.7288 311.187 51.5181C311.365 50.544 311.379 49.5091 311.744 48.6146C312.751 46.1372 312.414 43.3789 313.482 40.9343C313.557 40.7283 313.632 40.5222 313.707 40.3161C314.807 38.9346 314.634 37.3143 314.573 35.7127C315.66 35.1835 313.707 34.0314 315.238 33.3056C320.029 31.0343 326.674 31.7742 330.884 35.338C330.866 35.4832 330.931 35.5581 331.076 35.5675C332.448 37.6655 334.191 39.3936 336.181 40.9249C338.499 42.7092 340.63 44.7089 342.1 47.2986C342.138 47.4579 342.171 47.6124 342.208 47.7716C343.224 49.0969 341.21 50.6798 342.573 51.9724C342.629 52.2908 342.69 52.6046 342.747 52.923C342.723 53.0776 342.695 53.2274 342.672 53.382C342.634 53.5412 342.597 53.7004 342.559 53.855C341.534 54.7635 341.927 56.9739 339.688 56.6836C340.199 57.8871 341.59 58.5006 341.018 59.9055C340.901 60.0179 340.78 60.1303 340.663 60.2427C339.983 60.1303 339.197 60.2006 338.654 59.8681C337.544 59.1937 337.103 59.9477 337.038 60.6689C336.752 63.8861 334.406 66.6913 335.193 70.11C335.3 70.5783 335.305 71.07 334.645 71.1496C334.148 71.2105 334.003 70.8359 333.891 70.4518C333.764 70.0116 333.633 69.5714 333.296 68.4428C332.219 73.3038 331.287 77.5233 330.341 81.7381C329.938 83.5364 329.498 85.33 330.355 87.119C330.304 87.2641 330.299 87.4093 330.341 87.5545C329.166 91.7459 327.943 95.9279 326.829 100.133C324.74 107.996 323.134 115.953 322.492 124.078C321.551 128.4 321.335 132.803 321.054 137.195C320.727 138.909 320.399 140.628 320.076 142.342C319.799 142.314 319.467 142.009 319.266 142.356C319.045 142.731 319.186 143.082 319.603 143.283C319.617 143.691 319.626 144.098 319.64 144.506C317.388 143.204 317.149 143.25 317.308 145.709C317.42 147.507 316.118 148.866 316.306 150.734C316.423 151.872 316.783 153.31 315.866 154.532C314.732 156.045 315.397 156.775 317.135 156.803C317.523 156.808 317.912 156.846 318.296 156.869C318.39 157.333 318.483 157.801 318.577 158.264C318.137 160.278 315.922 162.592 319.542 163.908C319.87 164.516 320.202 165.125 320.53 165.734L320.521 165.879L320.661 165.921C320.577 166.582 320.408 167.284 321.438 167.322C321.378 168.052 321.996 168.328 322.394 168.745C323.284 169.687 322.094 169.34 321.874 169.593C321.242 168.16 319.228 169.176 318.516 167.715C318.418 167.509 317.917 168.071 318.025 168.595C318.188 169.377 319.008 169.551 319.359 170.145C319.27 170.249 319.186 170.352 319.102 170.459C318.497 170.047 317.945 169.509 317.28 169.251C316.357 168.89 316.999 169.687 316.882 169.935C316.301 170.057 315.697 170.211 316.437 170.89C317.158 171.55 318.039 172.07 318.188 173.161C315.997 172.862 314.877 171.059 313.407 169.752L313.304 169.584C310.274 164.198 307.216 158.822 306.335 152.556C306.289 152.406 306.242 152.261 306.2 152.111C306.139 151.821 306.073 151.526 306.012 151.235C305.98 150.917 305.951 150.598 305.919 150.28C305.975 149.882 305.961 149.507 305.619 149.221C304.832 145.1 305.347 140.843 304.397 136.601C301.418 138.263 298.594 139.841 295.766 141.419C294.806 141.457 294.806 142.15 294.801 142.838C294.553 143.124 294.3 143.41 294.052 143.691V143.7ZM293.883 123.188C295.115 122.729 296.361 122.289 297.185 121.071C295.991 121.666 294.796 122.261 293.597 122.86C293.429 123.094 292.764 123.062 293.064 123.488C293.293 123.811 293.686 123.535 293.883 123.193V123.188ZM301.432 114.225C301.418 113.307 301.676 111.686 301.971 111.719C303.174 111.855 303.156 111.157 303.24 110.45C303.395 109.148 303.526 107.842 303.61 106.535C303.643 106.025 303.971 105.322 303.469 105.032C302.903 104.704 302.238 105.088 301.798 105.533C300.5 106.849 299.255 108.207 297.986 109.546C296.098 110.783 295.157 112.853 293.841 114.543C291.762 117.213 289.781 120.055 288.741 123.624C293.808 122.233 297.976 119.446 302.626 117.84C304.392 117.231 303.292 115.906 303.282 114.922C303.263 113.386 302.093 114.361 301.432 114.225ZM292.567 142.749C292.694 142.698 292.82 142.646 292.942 142.595C292.848 142.492 292.778 142.342 292.661 142.29C292.464 142.201 292.216 142.169 292.244 142.501C292.253 142.595 292.45 142.67 292.567 142.749ZM292.38 124.04C292.258 123.825 292.216 123.652 292.136 123.638C292.01 123.61 291.851 123.661 291.72 123.717C291.499 123.811 291.495 123.966 291.72 124.031C291.898 124.083 292.108 124.04 292.38 124.04ZM313.875 41.8943C313.838 41.8428 313.8 41.796 313.768 41.7445C313.721 41.7866 313.641 41.8241 313.636 41.8663C313.632 41.9131 313.702 41.9646 313.735 42.0161C313.782 41.974 313.828 41.9365 313.875 41.8943Z" fill="#F4F4F4"/>
<path d="M276.476 144.843C276.588 144.964 276.706 145.086 276.818 145.208C276.818 145.934 277.928 146.472 277.268 147.264C276.846 147.77 276.518 147.072 276.139 146.945C275.956 146.51 275.643 146.477 275.258 146.655C275.404 146.871 275.549 147.086 275.694 147.297C276.106 147.971 276.968 148.355 277.099 149.919C275.783 148.313 274.992 148.706 274.008 149.816C273.554 150.331 272.388 151.207 271.357 150.181C271.362 150.003 271.278 149.924 271.1 149.938C268.59 147.217 265.026 146.196 262.015 144.271C261.898 144.196 261.771 144.168 261.635 144.187C258.498 140.881 254.639 138.446 251.155 135.551L251.117 135.43L250.991 135.406C250.476 135.027 249.96 134.648 249.445 134.268L249.483 134.301C245.319 131.252 241.002 128.461 236.244 126.415C234.993 125.876 233.79 125.272 232.394 126.349C231.935 126.705 230.952 126.738 230.174 126.363C228.147 125.384 227.936 126.546 227.823 128.227C227.421 134.184 226.887 140.132 226.404 146.084C225.281 147.025 226.404 148.285 225.946 149.32C224.751 149.587 224.953 150.575 225.046 151.343C225.206 152.654 224.69 153.511 223.599 154.12C223.403 154.087 223.206 154.059 223.009 154.026C223.033 153.567 223.061 153.113 223.084 152.654C223.646 151.975 223.473 151.137 223.581 150.355C224.063 148.706 224.358 147.044 224.129 145.306C223.969 144.122 224.11 142.183 222.911 142.225C221.197 142.286 221.721 144.398 221.37 145.648C221.262 146.042 221.614 146.543 221.642 146.997C221.684 147.742 221.927 148.622 220.818 148.884C220.808 147.962 220.799 147.039 220.789 146.117C220.48 145.353 219.001 145.793 219.15 144.735C219.366 143.246 218.645 143.972 218.092 144.168C217.614 143.218 217.792 142.169 217.671 140.876C217.207 142.197 216.739 143.124 215.853 141.462C215.727 140.951 216.495 140.352 215.699 139.907C215.868 138.98 216.317 138.085 216.022 137.102C215.999 136.193 216.345 135.27 215.942 134.371C216.373 134.165 216.626 133.908 216.237 133.439C216.247 133.149 216.256 132.863 216.261 132.573C217.188 130.522 219.146 128.752 218.101 126.073C217.062 126.569 218.04 127.712 217.305 128.236C216.823 127.993 217.226 127.122 216.654 127.164C215.966 127.216 216.223 127.829 216.331 128.26C216.612 129.365 215.732 129.07 215.207 129.201C214.856 128.939 214.336 129.084 214.552 128.138C215.034 126.012 215.095 123.788 215.282 121.601C215.324 121.128 215.582 120.383 214.739 120.345C214.139 120.317 213.905 120.828 213.723 121.404C212.683 124.668 211.522 127.909 210.936 131.29C210.248 135.261 209.311 139.204 210.126 143.321C210.356 144.487 209.836 145.878 208.346 146.88C208.239 145.812 208.159 145.011 208.084 144.211C208.253 141.405 208.492 138.595 208.103 135.79C208.145 135.486 208.187 135.182 208.229 134.882C208.979 132.531 209.733 130.18 210.482 127.829C210.974 126.761 212.608 125.792 210.763 124.527C210.852 124.228 210.936 123.928 211.025 123.624C211.517 123.535 212.44 124.228 212.332 123.029C212.276 122.397 213.278 121.156 211.536 121.245C211.676 120.636 211.821 120.027 211.962 119.414C212.107 119.573 212.252 119.737 212.393 119.896C212.678 120.528 213.095 120.519 213.301 119.924C214.06 117.746 214.772 115.555 215.441 113.349C215.647 112.665 215.09 112.895 214.744 112.942L214.523 112.117C215.779 109.584 216.233 106.811 216.598 104.076C217.507 97.3 217.535 90.4439 218.434 83.6535C219.858 72.8636 220.64 61.9707 222.494 51.2605C224.049 42.269 225.725 33.1791 230.01 24.9041L230.17 24.8666C230.694 25.5082 231.223 26.5104 231.884 25.0165C232.202 24.3 232.591 23.8597 233.415 23.9768C233.551 24.1126 233.691 24.2531 233.827 24.3889C235.204 25.4567 236.543 26.5713 237.976 27.5594C238.403 27.8544 239.011 27.5875 239.447 27.1801C239.939 26.7211 240.435 26.9365 240.908 27.255C241.063 27.6905 241.222 28.126 241.376 28.5616C241.053 30.7486 238.459 32.6405 240.702 35.2303C241.086 35.6752 240.22 37.1878 239.948 38.2087C239.269 40.7891 240.074 43.4959 239.395 46.0436C238.552 49.2327 239.199 52.4734 238.571 55.9155C240.557 54.9648 239.831 52.9652 240.8 51.8553C240.95 51.9723 241.1 52.0894 241.25 52.2065C241.18 53.2602 240.196 54.7354 240.941 55.2505C242.608 56.3979 241.826 57.6717 241.62 58.8893C240.299 66.8458 238.229 74.6432 236.431 82.4967C235.349 87.2173 234.37 91.9613 233.251 97.1361C237.026 94.4012 239.901 91.2635 243.699 89.3996C244.406 89.9756 245.085 89.8305 245.76 89.334C246.959 88.4536 248.157 87.5732 249.361 86.6928C249.614 86.5804 250.031 86.6132 249.867 86.1261H249.806C253.702 85.0537 256.924 82.7122 260.249 80.572L260.17 80.5907C260.619 80.6563 261.027 80.6422 261.125 80.0662C263.026 79.5698 264.965 79.1717 266.637 78.0478C267.611 77.9448 268.524 76.9894 269.569 77.8324C268.997 78.0665 268.332 78.2023 268.388 79.064C269.185 79.2794 269.634 78.8252 270.037 78.2632C270.571 78.488 271.498 78.3054 271.568 78.9516C271.629 79.5042 270.913 79.8789 270.271 80.0381C269.91 80.1271 269.573 80.3285 269.241 80.5158C268.608 80.8717 267.606 81.0075 267.7 81.9394C267.798 82.9182 268.969 81.9395 269.362 82.6044V82.5951C268.824 82.8667 268.267 83.1196 267.742 83.4193C267.321 83.6628 266.543 83.6488 266.702 84.4028C266.838 85.0584 267.072 85.8358 267.911 85.8686C269.62 85.9388 269.128 87.2688 268.712 87.7699C267.733 88.9547 268.59 89.7368 268.964 90.664C268.374 91.4133 267.072 91.4508 267.016 92.7714C266.974 93.7923 265.911 93.9141 265.274 94.0125C260.577 94.7196 257.285 98.1898 252.93 99.782C253.922 100.723 254.573 99.4823 255.355 99.9131C255.065 100.676 254.325 100.84 253.735 101.098C249.483 102.929 245.933 105.842 242.154 108.413C240.454 109.57 240.594 110.235 242.332 110.97L242.786 111.326C242.931 111.391 243.081 111.457 243.226 111.527C243.605 112.478 244.739 112.525 245.291 113.265C244.861 113.349 244.139 113.377 244.196 113.803C244.294 114.538 245.118 114.59 245.746 115.035C245.689 114.314 245.652 113.869 245.619 113.424C247.08 114.159 248.321 115.194 249.483 116.323C249.253 116.651 248.668 116.899 249.263 117.423C249.361 117.063 249.455 116.716 249.553 116.374C250.471 116.543 250.925 117.325 251.557 117.877C250.925 118.266 250.499 118.702 251.169 119.418C251.885 119.966 252.602 120.509 253.318 121.057C253.894 121.54 254.475 122.022 255.051 122.504C258.502 125.768 261.949 129.033 265.401 132.297L265.513 132.4C266.047 132.924 266.576 133.453 267.11 133.978L267.091 133.955C268.496 135.566 269.896 137.181 271.301 138.792C271.259 138.937 271.301 139.031 271.446 139.083C271.564 139.265 271.676 139.452 271.793 139.635L271.751 139.584C272.748 141.522 274.49 142.801 275.938 144.342L275.923 144.328C276.101 144.501 276.279 144.674 276.462 144.843H276.476ZM224.082 137.668C224.138 137.968 224.189 138.263 224.246 138.563C224.311 138.53 224.419 138.507 224.433 138.455C224.527 138.104 224.349 137.86 224.082 137.664C223.894 136.198 222.981 135.65 221.614 135.589C220.986 137.331 224.04 138.994 221.3 140.539C223.426 141.134 223.805 140.876 223.393 139.275C223.192 138.497 223.117 137.893 224.077 137.664L224.082 137.668ZM225.365 148.43C225.332 148.374 225.299 148.318 225.266 148.257C225.224 148.308 225.154 148.355 225.149 148.407C225.149 148.458 225.206 148.519 225.238 148.575C225.281 148.524 225.323 148.477 225.365 148.425V148.43Z" fill="#F4F4F4"/>
<path d="M414.59 106.146L414.632 106.292C416.187 110.249 415.798 114.22 414.683 118.187C413.222 123.375 411.04 128.171 407.036 131.95L407.064 131.917C405.523 133.514 403.978 135.116 402.437 136.713C402.137 136.849 401.833 136.985 401.533 137.12C400.953 136.254 400.831 137.003 400.601 137.383C400.199 137.785 399.801 138.193 399.398 138.595C397.927 139.195 396.199 139.588 396.841 141.85C396.682 142.136 396.522 142.422 396.359 142.707C394.359 144.042 392.762 145.92 390.552 146.974C390.102 145.948 389.278 144.726 391.455 144.88C392.162 144.932 392.041 144.585 391.942 144.211C391.643 143.073 392.561 142.562 393.118 141.869C393.418 141.565 393.717 141.255 394.022 140.951C394.588 140.96 394.926 140.694 395.005 140.117C396.729 138.722 397.932 136.952 398.752 134.905C399.922 134.221 400.873 133.271 401.805 132.306C402.802 131.416 403.884 130.601 404.446 129.323C404.587 129.15 404.727 128.981 404.868 128.808C405.139 128.663 405.374 128.48 405.078 128.18C405.041 128.138 404.746 128.349 404.568 128.438C404.428 128.635 404.282 128.827 404.142 129.023C403.922 129.103 403.702 129.182 403.482 129.267C401.992 129.103 401.285 129.655 401.679 131.22L401.543 131.182L401.674 131.234C400.859 131.257 400.044 131.281 399.234 131.304C399.463 130.92 399.698 130.541 399.927 130.157C401.351 127.974 404.353 126.729 403.931 123.45C403.861 122.921 404.137 122.706 404.531 122.378C405.903 121.226 405.533 120.528 403.837 120.35C404.034 119.432 404.231 118.51 404.428 117.592C405.172 117.789 405.87 117.985 405.654 119.039C405.491 119.84 406.179 119.784 406.666 119.901C406.736 119.919 406.802 119.943 406.872 119.961C406.825 119.919 406.774 119.882 406.727 119.84C407.448 117.784 407.87 115.625 406.877 113.639C406.343 112.576 406.254 111.626 406.291 110.553C406.362 110.37 406.427 110.188 406.497 110.01C406.38 110.15 406.268 110.296 406.151 110.436C405.556 111.682 404.713 107.696 404.193 110.53C403.772 110.258 403.346 109.991 402.924 109.72C402.779 109.687 402.629 109.649 402.484 109.617C402.362 109.546 402.231 109.523 402.095 109.542C402.011 109.406 401.988 109.256 402.025 109.101C402.784 109.233 403.336 108.661 404.011 108.502C404.076 108.455 404.147 108.413 404.212 108.366C404.142 108.38 404.067 108.394 403.997 108.408C402.681 107.528 401.121 107.298 399.66 106.816C395.253 104.62 390.458 104.353 385.681 103.88C383.443 103.66 382.572 104.77 382.244 106.704L382.272 106.661C381.738 107.486 381.476 108.441 380.754 109.195C378.132 111.939 375.58 114.749 372.999 117.54L372.985 117.554L372.259 118.144L372.17 118.224C370.25 119.367 368.045 121.02 366.073 120.537C363.404 119.887 362.331 121.114 361.048 122.72L360.889 122.776L360.856 122.945C359.816 123.839 358.922 124.865 358.215 126.04L358.098 126.082L358.079 126.204C355.981 128.803 354.52 131.753 353.33 134.849C352.286 136.366 352.412 138.3 351.672 139.865C350.661 142 351.86 143.822 351.972 145.779C352.178 149.315 354.997 147.292 356.613 147.831C357.189 148.023 357.812 148.065 358.416 148.177C358.416 148.341 358.416 148.5 358.416 148.664C356.669 148.772 354.927 148.875 353.18 148.983C355.508 149.235 357.849 150.022 360.116 148.922H360.107C361.849 149.109 363.553 149.104 365.038 147.952C365.694 146.402 366.733 148.13 367.764 147.601C369.937 146.477 372.55 146.191 374.685 145.021C376.09 144.253 378.685 144.454 378.53 141.738C378.816 141.64 379.106 141.541 379.392 141.443C379.762 142.323 380.23 142.365 380.97 141.766C382.515 140.516 384.117 139.345 385.7 138.141C387.316 137.387 388.524 135.903 390.453 135.359C390.416 136.446 388.538 136.394 389.371 137.654C388.936 138.038 388.852 138.535 388.898 139.083C388.795 139.045 388.692 139.026 388.585 139.031C387.241 139.368 386.426 140.726 384.997 140.904C382.946 141.654 382.881 142.014 384.398 144.276C384.346 144.435 384.295 144.599 384.239 144.758C384.103 144.74 383.967 144.73 383.831 144.735C382.768 143.855 381.799 143.733 380.722 144.833C379.799 145.775 377.818 145.166 377.387 147.091C378.043 146.571 378.694 146.59 379.359 146.871C378.586 148.43 377.036 148.636 375.594 149.02C374.924 148.969 375.547 147.662 374.83 148.004C373.027 148.875 370.691 148.552 369.342 150.42C366.668 150.064 364.471 151.933 361.9 152.036C364.495 152.064 367.099 152.139 369.3 150.373C370.325 150.481 371.276 150.214 372.194 149.783C372.442 149.961 372.686 150.135 372.934 150.313C373.786 151.301 374.638 150.725 375.58 150.406C377.912 149.615 379.902 148.027 382.365 147.564C383.414 147.76 384.698 147.657 384.618 149.31C384.567 149.413 384.515 149.516 384.463 149.619C384.571 149.573 384.674 149.521 384.782 149.474C385.957 148.425 386.8 146.238 388.884 148.257C388.571 148.781 388.257 149.31 387.948 149.835C382.483 152.162 377.013 154.49 371.548 156.817C371.079 156.944 370.339 156.508 370.189 157.192C370.1 157.599 370.761 157.342 371.051 157.478C371.234 158.541 370.307 158.48 369.74 158.691C368.663 159.103 367.548 159.407 366.448 159.758C366.087 159.651 365.783 159.73 365.548 160.035C364.607 160.044 363.666 160.049 362.72 160.058C362.72 159.805 362.711 159.552 362.706 159.299C363.867 159 365.3 159.655 366.452 158.119C364.026 158.382 361.886 158.606 359.751 158.836C359.784 158.953 359.798 159.079 359.854 159.178C359.882 159.225 359.994 159.22 360.074 159.239C359.924 160.976 358.543 160.138 357.915 160.03C355.124 159.538 352.38 158.808 349.617 158.166C349.453 158.016 349.293 157.866 349.13 157.717C349.069 157.038 349.27 156.255 348.596 155.778C346.886 154.574 345.149 153.403 343.426 152.219C342.372 151.062 341.318 149.905 340.26 148.744C339.117 146.983 339.445 144.473 337.422 143.157C337.356 141.181 337.492 139.115 335.254 138.062C335.16 137.631 335.066 137.195 334.968 136.764C335.394 136.544 335.919 136.193 335.825 135.758C335.366 133.711 335.979 131.58 335.296 129.562C335.951 127.941 336.214 126.274 335.937 124.532C337.08 122.851 337.01 120.72 337.998 118.983C338.536 118.631 338.775 118.121 338.78 117.493C338.822 117.208 338.864 116.927 338.906 116.641C340.091 115.48 340.208 114.801 339.328 114.262C339.389 113.962 339.45 113.663 339.511 113.363C341.632 112.417 342.695 110.614 343.411 108.535C345.776 105.125 347.973 101.548 352.183 100.086C351.738 99.1732 351.064 99.5572 350.708 99.768C348.525 101.065 346.011 101.744 344.006 103.355C343.266 103.95 342.54 104.47 341.538 104.011C342.33 102.985 343.781 102.606 344.517 101.061C342.625 101.285 341.997 103.252 340.578 103.308C338.349 103.397 338.696 101.674 338.864 100.222C339.014 100.091 339.164 99.9647 339.314 99.8335C339.684 99.6041 340.054 99.3699 340.428 99.1404L340.55 99.0374C342.03 98.0446 343.515 97.0658 344.98 96.0543C345.303 95.8295 345.992 95.675 345.594 95.0755C343.894 92.5045 346.779 91.8817 347.687 91.5023C353.546 89.0624 359.32 86.4305 365.132 83.8876L365.075 83.9204C365.965 83.6816 366.855 83.4568 367.735 83.1992C373.594 81.5086 379.214 81.0216 383.71 86.3088C383.789 86.4305 383.873 86.5523 383.953 86.6741C384.187 87.0159 384.421 87.3578 384.651 87.6996C384.815 89.5354 385.803 90.1583 387.648 90.3596C395.206 91.1792 402.137 93.7081 408.099 98.5738C408.511 98.911 408.989 99.1732 409.434 99.4683C410.815 101.135 412.201 102.798 413.583 104.465C413.752 105.125 414.061 105.701 414.594 106.146H414.59ZM408.001 123.998C407.041 125.225 405.659 126.19 405.743 128.082C406.647 126.841 407.551 125.605 408.455 124.364C409.106 123.282 410.028 122.312 409.902 120.669C408.802 121.694 408.53 122.921 408.001 123.998ZM366.864 85.1661C369.609 85.4986 372.095 84.7868 374.615 85.0771C377.312 85.3862 379.04 87.2969 381.326 88.6597C379.593 83.2601 373.496 81.8083 366.86 85.1661H366.864ZM383.176 148.636C381.71 148.06 382.412 150.949 380.67 149.947C380.385 149.783 379.345 149.863 379.612 150.856C379.809 151.591 380.253 151.591 381.007 151.507C382.824 151.291 382.937 149.961 383.176 148.636ZM391.409 99.7446C389.938 98.541 388.266 98.6206 386.618 98.4848C386.594 98.6768 386.566 98.8735 386.543 99.0655C388.163 99.2903 389.788 99.5198 391.409 99.7446ZM408.577 117.124C408.502 116.969 408.417 116.791 408.333 116.613C408.263 116.725 408.122 116.847 408.132 116.955C408.151 117.147 408.254 117.33 408.319 117.517C408.394 117.405 408.464 117.292 408.572 117.128L408.577 117.124ZM391.446 92.2797C391.572 92.2095 391.699 92.1392 391.825 92.069C391.722 91.9847 391.605 91.8114 391.521 91.8301C391.357 91.8629 391.212 91.994 391.062 92.0877C391.188 92.1533 391.315 92.2188 391.446 92.2844V92.2797ZM394.401 93.0337C394.2 92.8791 394.106 92.7433 394.012 92.748C393.82 92.7574 393.633 92.837 393.446 92.8885C393.525 92.9775 393.6 93.132 393.685 93.1367C393.877 93.1508 394.068 93.0899 394.401 93.0337ZM381.218 143.391C381.237 143.335 381.26 143.279 381.279 143.218C381.227 143.199 381.148 143.152 381.129 143.171C381.092 143.208 381.082 143.279 381.059 143.335C381.11 143.354 381.162 143.372 381.213 143.386L381.218 143.391ZM408.909 115.199C408.876 115.143 408.848 115.091 408.816 115.035C408.773 115.082 408.703 115.124 408.698 115.175C408.694 115.227 408.75 115.283 408.783 115.339C408.825 115.292 408.862 115.246 408.905 115.203L408.909 115.199ZM408.338 113.19L408.235 113.354L408.403 113.377L408.338 113.19ZM395.754 93.4224C395.703 93.3662 395.642 93.2538 395.6 93.2632C395.459 93.2866 395.328 93.3475 395.192 93.399C395.244 93.4552 395.305 93.5629 395.352 93.5582C395.487 93.5395 395.623 93.4739 395.754 93.4271V93.4224ZM397.113 93.8017C396.953 93.7689 396.813 93.6987 396.696 93.7268C396.466 93.783 396.466 93.9141 396.682 94.0171C396.743 94.0452 396.841 94.0733 396.888 94.0452C396.972 93.989 397.028 93.8954 397.113 93.8017Z" fill="#F4F4F4"/>
<path d="M155.212 118.987C155.24 118.889 155.282 118.791 155.296 118.688C155.301 118.646 155.25 118.594 155.221 118.547C155.493 115.138 155.76 111.724 156.036 108.315C156.392 103.903 157.783 100.021 161.539 97.2906C162.284 96.7521 162.78 96.0871 161.717 95.2488C160.012 93.9094 159.357 92.0034 159.071 89.9382C160.148 89.0109 161.225 88.0883 162.298 87.1611C166.33 85.5314 170.737 85.433 174.839 84.0749C176.019 83.6816 177.368 83.6535 178.539 84.0609C183.306 85.7234 188.574 86.1168 192.522 89.8726C195.15 92.3734 198.531 94.0171 200.821 96.93C201.383 97.6465 201.771 99.0374 202.357 99.103C204.778 99.3746 203.752 100.995 203.574 102.025C203.322 103.458 203.499 104.531 204.937 104.99C206.005 105.327 206.005 105.865 205.855 106.825C205.326 110.253 204.455 113.644 204.6 117.156C204.656 118.566 204.132 119.826 203.729 121.137C203.097 123.183 202.661 125.286 202.141 127.365C202.09 127.665 202.043 127.965 201.992 128.265C201.139 130.32 200.39 132.409 199.252 134.353C195.065 141.49 189.099 145.892 180.754 146.988C175.588 147.662 171.196 146.013 167.098 143.129L167.117 143.152C160.813 137.804 157.97 130.681 156.598 122.771C156.374 121.465 156.495 119.947 155.221 118.992L155.212 118.987ZM186.917 133.866C188.785 131.969 191.042 130.409 192.237 127.927C193.332 125.661 192.831 122.959 194.143 120.729C194.278 120.5 193.918 120.575 193.712 120.603C192.574 120.753 193.173 119.863 193.028 119.414C193.857 118.388 194.531 117.484 193.749 115.948C193.337 115.138 193.098 113.653 193.337 112.946C194.133 110.605 192.85 109.406 191.426 108.123C188.729 103.964 184.734 103.365 180.271 104.011C180.36 104.648 180.445 105.238 180.529 105.828C180.374 105.814 180.22 105.809 180.065 105.814C179.906 105.804 179.747 105.8 179.588 105.79C179.438 105.767 179.293 105.767 179.143 105.79C178.417 105.36 179.644 104.02 178.333 103.927C177.565 103.875 177.269 104.573 177.293 105.205C177.443 109.115 176.272 112.895 176.22 116.796C176.183 119.493 176.328 122.448 175.293 124.808C174.165 127.384 174.769 129.37 175.654 131.519C176.15 132.723 177.063 133.748 177.658 134.924C178.005 135.608 178.262 136.043 179.161 136.015C179.817 135.996 180.594 136.324 180.833 137.055C181.142 138.005 179.513 137.28 179.663 138.216C180.22 138.731 180.866 138.507 181.466 138.563C182.248 139.078 183.475 138.614 183.517 138.314C183.746 136.638 185.264 136.736 186.153 135.996C186.636 135.598 188.097 135.06 186.917 133.866ZM191.604 92.1626C189.23 89.6993 186.074 88.8283 182.856 88.1071C182.575 88.0462 182.163 88.1679 182.257 88.5801C182.313 88.8376 182.58 89.2076 182.796 89.2451C185.858 89.7602 188.593 91.2166 191.604 92.1579V92.1626Z" fill="#F4F4F4"/>
</g>
<defs>
<filter id="filter0_d_11_1125" x="0.00102234" y="0" width="447.662" height="225.007" filterUnits="userSpaceOnUse" color-interpolation-filters="sRGB">
<feFlood flood-opacity="0" result="BackgroundImageFix"/>
<feColorMatrix in="SourceAlpha" type="matrix" values="0 0 0 0 0 0 0 0 0 0 0 0 0 0 0 0 0 0 127 0" result="hardAlpha"/>
<feOffset dy="18"/>
<feGaussianBlur stdDeviation="16"/>
<feComposite in2="hardAlpha" operator="out"/>
<feColorMatrix type="matrix" values="0 0 0 0 0 0 0 0 0 0 0 0 0 0 0 0 0 0 0.5 0"/>
<feBlend mode="normal" in2="BackgroundImageFix" result="effect1_dropShadow_11_1125"/>
<feBlend mode="normal" in="SourceGraphic" in2="effect1_dropShadow_11_1125" result="shape"/>
</filter>
</defs>
</svg>
