<svg width="242" height="30" viewBox="0 0 242 30" fill="none" xmlns="http://www.w3.org/2000/svg">
<path d="M0 29.5243V6.04029H6.09806V10.1489H6.35755C7.35227 7.42425 9.73094 5.73755 12.8881 5.73755C16.1317 5.73755 18.5104 7.42425 19.2889 10.1489H19.5051C20.4998 7.46749 23.138 5.73755 26.5979 5.73755C30.966 5.73755 33.9934 8.63521 33.9934 13.7385V29.5243H27.5926V14.9928C27.5926 12.3113 26.0357 11.0139 23.9165 11.0139C21.4946 11.0139 20.1106 12.7006 20.1106 15.1658V29.5243H13.8828V14.8198C13.8828 12.4843 12.4124 11.0139 10.2499 11.0139C8.08749 11.0139 6.4008 12.7438 6.4008 15.4252V29.5243H0Z" fill="#1937F5"/>
<path d="M49.4764 30C42.3836 30 37.9723 25.1129 37.9723 17.8472C37.9723 10.5814 42.3836 5.73755 49.4764 5.73755C56.5692 5.73755 61.0238 10.5814 61.0238 17.8472C61.0238 25.1129 56.5692 30 49.4764 30ZM49.5197 25.0264C52.8066 25.0264 54.4933 21.9558 54.4933 17.8472C54.4933 13.6953 52.8066 10.6246 49.5197 10.6246C46.1895 10.6246 44.4596 13.6953 44.4596 17.8472C44.4596 21.9558 46.1895 25.0264 49.5197 25.0264Z" fill="#1937F5"/>
<path d="M65.0459 29.5243V6.04029H71.144V10.1489H71.4035C72.3982 7.42425 74.7769 5.73755 77.934 5.73755C81.1777 5.73755 83.5563 7.42425 84.3348 10.1489H84.551C85.5458 7.46749 88.1839 5.73755 91.6438 5.73755C96.0119 5.73755 99.0393 8.63521 99.0393 13.7385V29.5243H92.6385V14.9928C92.6385 12.3113 91.0816 11.0139 88.9624 11.0139C86.5405 11.0139 85.1565 12.7006 85.1565 15.1658V29.5243H78.9287V14.8198C78.9287 12.4843 77.4583 11.0139 75.2958 11.0139C73.1334 11.0139 71.4467 12.7438 71.4467 15.4252V29.5243H65.0459Z" fill="#1937F5"/>
<path d="M114.609 30C107.43 30 103.018 25.3292 103.018 17.8904C103.018 10.6246 107.473 5.73755 114.349 5.73755C120.534 5.73755 125.378 9.62993 125.378 17.6309V19.4474H109.333C109.333 22.9938 111.452 25.1994 114.739 25.1994C116.901 25.1994 118.458 24.248 119.107 22.8208H125.205C124.297 27.1456 120.404 30 114.609 30ZM109.333 15.4252H119.323C119.323 12.5708 117.334 10.5381 114.479 10.5381C111.538 10.5381 109.441 12.7222 109.333 15.4252Z" fill="#1937F5"/>
<path d="M135.801 15.9442V29.5243H129.4V6.04029H135.498V10.1489H135.757C136.839 7.42425 139.347 5.73755 142.807 5.73755C147.694 5.73755 150.938 9.06769 150.894 14.5603V29.5243H144.537V15.6847C144.537 12.7871 142.937 11.0571 140.299 11.0571C137.617 11.0571 135.801 12.8303 135.801 15.9442Z" fill="#1937F5"/>
<path d="M168.237 6.04029V10.8409H163.826V22.3018C163.826 24.1615 164.734 24.6372 166.031 24.6804C166.68 24.6804 167.805 24.6372 168.583 24.5507V29.6108C167.891 29.7405 166.767 29.827 165.166 29.827C160.539 29.827 157.382 27.7511 157.425 23.21V10.8409H154.181V6.04029H157.425V0.417969H163.826V6.04029H168.237Z" fill="#1937F5"/>
<path d="M187.31 19.5339V6.04029H193.711V29.5243H187.569V25.2859H187.31C186.229 28.0106 183.72 29.827 180.174 29.827C175.46 29.827 172.259 26.4969 172.259 21.0043V6.04029H178.66V19.8799C178.66 22.6478 180.26 24.421 182.769 24.421C185.104 24.421 187.31 22.7343 187.31 19.5339Z" fill="#1937F5"/>
<path d="M212.091 13.0033C211.832 11.3599 210.361 10.2787 208.242 10.2787C206.166 10.2787 204.566 11.2734 204.609 12.7006C204.566 13.7385 205.431 14.5603 207.637 15.036L211.832 15.901C216.373 16.8524 218.579 18.8851 218.622 22.2585C218.579 26.8861 214.427 30 208.199 30C201.841 30 198.122 27.1456 197.603 22.5613H204.047C204.35 24.421 205.863 25.3724 208.199 25.3724C210.534 25.3724 212.091 24.421 212.091 22.9073C212.091 21.6963 211.097 20.9611 208.891 20.4853L204.998 19.7069C200.544 18.8419 198.208 16.5065 198.252 13.0466C198.208 8.54871 202.101 5.73755 208.156 5.73755C214.081 5.73755 217.757 8.54871 218.103 13.0033H212.091Z" fill="#1937F5"/>
<path d="M220.05 1.78761V0H228.599V1.78761H225.398V10.4373H223.25V1.78761H220.05Z" fill="#1937F5"/>
<path d="M229.939 0H232.621L235.518 7.07836H235.634L238.531 0H241.213V10.4373H239.108V3.60405H239.021L236.297 10.3941H234.855L232.131 3.57522H232.044V10.4373H229.939V0Z" fill="#1937F5"/>
</svg>
